#!OML:ASF H:\Pregnant\Project 1\Capture day 1\Session 1\femalepreg.ASF
:FULLY-SPECIFIED
:DEGREES
234
root 6.76746 15.6728 24.9914 7.62371 -86.3605 12.0679
lowerback -8.262 2.21658 0.54442
upperback -14.3718 2.06691 -0.375461
thorax -10.7456 0.567697 -0.658346
lowerneck -14.0721 12.2561 10.9286
upperneck 21.1729 18.5945 -16.444
head 11.9766 7.48183 -4.86172
rclavicle 1.97791e-014 3.97569e-016
rhumerus 97.7571 -69.4655 -44.9455
rradius 24.2223
rwrist 4.07794
rhand -26.402 -22.8782
rfingers 7.12502
rthumb 0.157498 -52.8579
lclavicle 1.97791e-014 3.97569e-016
lhumerus 30.6581 66.8866 -14.2388
lradius 28.7524
lwrist 25.228
lhand -39.2319 -15.8927
lfingers 7.12502
lthumb -12.2272 13.7299
rfemur -27.961 25.0267 9.85459
rtibia 30.9615
rfoot -17.7968 -26.7998
rtoes -11.3216
lfemur 0 0 0
ltibia 0
lfoot 0 0
ltoes 0
235
root 6.77033 15.6726 24.9904 7.61557 -86.3556 12.0682
lowerback -8.23871 2.23031 0.589335
upperback -14.3776 2.08162 -0.423095
thorax -10.7621 0.566874 -0.735374
lowerneck -14.076 12.3007 11.0281
upperneck 21.1998 18.6389 -16.4305
head 12.0039 7.51014 -4.86319
rclavicle 1.08835e-014 6.55989e-015
rhumerus 97.4573 -69.5681 -44.7267
rradius 24.2242
rwrist 4.12946
rhand -26.1487 -22.8406
rfingers 7.12502
rthumb 0.402095 -52.8199
lclavicle 1.08835e-014 6.55989e-015
lhumerus 30.7068 67.0083 -14.1821
lradius 28.6943
lwrist 25.0103
lhand -39.0461 -15.6044
lfingers 7.12502
lthumb -12.0481 14.0288
rfemur -27.9669 25.0258 9.85597
rtibia 30.9677
rfoot -17.7916 -26.8005
rtoes -11.3155
lfemur 0 0 0
ltibia 0
lfoot 0 0
ltoes 0
236
root 6.77328 15.6724 24.9893 7.66899 -86.3492 12.0037
lowerback -8.20924 2.24208 0.629788
upperback -14.3848 2.09423 -0.464524
thorax -10.7844 0.565818 -0.803449
lowerneck -14.0681 12.3497 11.1421
upperneck 21.222 18.6906 -16.4329
head 12.032 7.54194 -4.87184
rclavicle -8.74653e-015 -9.93923e-015
rhumerus 97.1248 -69.6672 -44.4826
rradius 24.2375
rwrist 4.17896
rhand -25.8777 -22.9014
rfingers 7.12502
rthumb 0.663834 -52.8801
lclavicle -8.74653e-015 -9.93923e-015
lhumerus 30.7713 67.1396 -14.1021
lradius 28.6369
lwrist 24.8028
lhand -38.8434 -15.2889
lfingers 7.12502
lthumb -11.8526 14.3557
rfemur -27.9668 25.0171 9.86534
rtibia 30.9696
rfoot -17.7791 -26.7959
rtoes -11.3352
lfemur 0 0 0
ltibia 0
lfoot 0 0
ltoes 0
237
root 6.77628 15.6722 24.9883 7.76631 -86.3427 11.8929
lowerback -8.17238 2.25402 0.663578
upperback -14.3955 2.10768 -0.497984
thorax -10.8158 0.566232 -0.859545
lowerneck -14.052 12.4016 11.2574
upperneck 21.2446 18.7488 -16.4417
head 12.0607 7.57637 -4.88219
rclavicle -2.99668e-014 -3.77691e-014
rhumerus 96.7402 -69.7625 -44.1812
rradius 24.2605
rwrist 4.21514
rhand -25.5946 -23.0362
rfingers 7.12502
rthumb 0.93729 -53.0139
lclavicle -2.99668e-014 -3.77691e-014
lhumerus 30.86 67.279 -13.9824
lradius 28.5824
lwrist 24.6112
lhand -38.6403 -15.0059
lfingers 7.12502
lthumb -11.6568 14.6498
rfemur -27.9618 24.9871 9.88392
rtibia 30.9678
rfoot -17.7598 -26.7725
rtoes -11.3727
lfemur 0 0 0
ltibia 0
lfoot 0 0
ltoes 0
238
root 6.77935 15.672 24.9872 7.92458 -86.336 11.7187
lowerback -8.12652 2.26398 0.686822
upperback -14.4083 2.11959 -0.519335
thorax -10.8558 0.567704 -0.897071
lowerneck -14.0352 12.4585 11.3742
upperneck 21.2708 18.8184 -16.4636
head 12.0948 7.61419 -4.89547
rclavicle 2.68359e-014 1.03368e-014
rhumerus 96.3261 -69.8508 -43.8427
rradius 24.2922
rwrist 4.23048
rhand -25.3017 -23.2475
rfingers 7.12502
rthumb 1.22017 -53.2238
lclavicle 2.68359e-014 1.03368e-014
lhumerus 30.9148 67.4096 -13.8805
lradius 28.5341
lwrist 24.4551
lhand -38.4624 -14.8609
lfingers 7.12502
lthumb -11.4852 14.8045
rfemur -27.9529 24.9589 9.90831
rtibia 30.963
rfoot -17.7398 -26.7497
rtoes -11.4092
lfemur 0 0 0
ltibia 0
lfoot 0 0
ltoes 0
239
root 6.78249 15.672 24.986 8.11639 -86.3291 11.5107
lowerback -8.07817 2.27389 0.706253
upperback -14.4203 2.13209 -0.535445
thorax -10.8967 0.570268 -0.926951
lowerneck -14.0308 12.5183 11.4842
upperneck 21.3098 18.8945 -16.4836
head 12.1365 7.65307 -4.90534
rclavicle 4.47266e-014 2.38542e-014
rhumerus 95.8098 -69.9486 -43.3942
rradius 24.3387
rwrist 4.18596
rhand -25.0363 -23.4584
rfingers 7.12502
rthumb 1.47648 -53.4331
lclavicle 4.47266e-014 2.38542e-014
lhumerus 30.9207 67.5218 -13.8164
lradius 28.4903
lwrist 24.3297
lhand -38.2969 -14.6666
lfingers 7.12502
lthumb -11.3256 15.0076
rfemur -27.9428 24.9329 9.93458
rtibia 30.9565
rfoot -17.7261 -26.7227
rtoes -11.4248
lfemur 0 0 0
ltibia 0
lfoot 0 0
ltoes 0
240
root 6.78572 15.672 24.9846 8.34679 -86.3217 11.2626
lowerback -8.02601 2.28494 0.72383
upperback -14.4296 2.1469 -0.548179
thorax -10.9368 0.574599 -0.952327
lowerneck -14.0397 12.5782 11.571
upperneck 21.3553 18.9741 -16.4952
head 12.1806 7.69134 -4.90709
rclavicle 3.62285e-014 1.61016e-014
rhumerus 95.2813 -70.0517 -42.9224
rradius 24.3859
rwrist 4.10728
rhand -24.8073 -23.6658
rfingers 7.12502
rthumb 1.69771 -53.6388
lclavicle 3.62285e-014 1.61016e-014
lhumerus 30.8596 67.6108 -13.8097
lradius 28.4517
lwrist 24.2422
lhand -38.1547 -14.4598
lfingers 7.12502
lthumb -11.1885 15.2218
rfemur -27.9306 24.9024 9.96534
rtibia 30.9489
rfoot -17.721 -26.6859
rtoes -11.4093
lfemur 0 0 0
ltibia 0
lfoot 0 0
ltoes 0
241
root 6.78912 15.6722 24.9832 8.56966 -86.3126 11.0229
lowerback -7.97366 2.29532 0.738175
upperback -14.4357 2.16139 -0.559056
thorax -10.9734 0.579434 -0.973919
lowerneck -14.0605 12.6372 11.6335
upperneck 21.4056 19.0554 -16.4982
head 12.2255 7.72826 -4.90094
rclavicle 3.17062e-014 -1.39149e-015
rhumerus 94.7922 -70.1557 -42.4848
rradius 24.429
rwrist 4.015
rhand -24.6283 -23.8585
rfingers 7.12502
rthumb 1.87059 -53.83
lclavicle 3.17062e-014 -1.39149e-015
lhumerus 30.7626 67.6919 -13.8314
lradius 28.4142
lwrist 24.159
lhand -38.0313 -14.1787
lfingers 7.12502
lthumb -11.0695 15.5094
rfemur -27.9202 24.882 9.99221
rtibia 30.9416
rfoot -17.7259 -26.6532
rtoes -11.354
lfemur 0 0 0
ltibia 0
lfoot 0 0
ltoes 0
